<?xml version="1.0" encoding="iso-8859-1"?>
<!-- Generator: Adobe Illustrator 19.0.0, SVG Export Plug-In . SVG Version: 6.00 Build 0)  -->
<svg version="1.1" id="Capa_1" xmlns="http://www.w3.org/2000/svg" xmlns:xlink="http://www.w3.org/1999/xlink" x="0px" y="0px"
	 viewBox="0 0 512.216 512.216" style="enable-background:new 0 0 512.216 512.216;" xml:space="preserve">
<g transform="translate(-1)">
	<g transform="translate(2)">
		<g>
			<polygon style="fill:#E3E7F2;" points="280.698,275.524 280.698,349.226 314.831,349.226 314.831,252.868 			"/>
			<path style="fill:#E3E7F2;" d="M426.391,9.305l-64.149,23.349l-32.075,11.674l-48.113,17.511
				c-8.821,3.21-12.127,16.582-7.282,29.893s15.973,21.429,24.793,18.219l48.112-17.512l32.075-11.674l64.15-23.349L426.391,9.305z"
				/>
		</g>
		<g>
			<path style="fill:#A4C2F7;" d="M363.584,136.189L347.678,92.44l-17.511-48.112c-1.597-4.428,0.682-9.314,5.1-10.937l16.037-5.837
				c4.428-1.597,9.314,0.682,10.937,5.1l17.512,48.112l15.906,43.749L363.584,136.189z"/>
			<path style="fill:#A4C2F7;" d="M486.266,223.641l-127.317,46.677l-20.651,7.509l-115.285,42.24l-20.821,7.68L70.692,375.876
				c-12.459,4.523-28.416-5.717-41.387-24.576c-5.805-8.698-10.533-18.067-14.08-27.904c-12.885-35.499-8.96-69.376,8.704-75.861
				l132.181-48.384l21.504-7.851l0.085-0.085l114.688-41.984l21.845-8.021L439.503,95.3c8.624-2.2,17.776,0.112,24.32,6.144
				c14.476,12.26,25.26,28.302,31.147,46.336C507.855,183.193,503.93,217.156,486.266,223.641z"/>
		</g>
		<path style="fill:#E3E7F2;" d="M469.199,205.209l-127.317,46.677l-20.651,7.509l-115.285,42.24l-20.821,7.68L53.626,357.444
			c-8.624,2.2-17.776-0.112-24.32-6.144c-5.805-8.698-10.533-18.067-14.08-27.904c-12.885-35.499-8.96-69.376,8.704-75.861
			l132.181-48.384l21.504-7.851l0.085-0.085l114.688-41.984l21.845-8.021L439.503,95.3c8.624-2.2,17.776,0.112,24.32,6.144
			c5.805,8.698,10.532,18.067,14.08,27.904C490.788,164.761,486.863,198.724,469.199,205.209z"/>
		
			<ellipse transform="matrix(-0.342 -0.9397 0.9397 -0.342 552.6335 453.6786)" style="fill:#A4C2F7;" cx="435.151" cy="33.36" rx="25.6" ry="17.067"/>
		<path style="fill:#E3E7F2;" d="M272.164,358.553c-0.595-0.071-1.193-0.099-1.792-0.085c-7.009,0.001-13.445,3.875-16.725,10.069
			l-71.424,134.997h42.667l62.123-117.419c0.658-1.217,1.173-2.505,1.536-3.84h18.432c0.363,1.335,0.878,2.623,1.536,3.84
			l62.123,117.419h42.667l-71.424-134.997c-3.281-6.194-9.716-10.069-16.725-10.069c-0.599-0.014-1.197,0.014-1.792,0.085H272.164z"
			/>
		<g>
			<circle style="fill:#A4C2F7;" cx="297.764" cy="358.468" r="25.6"/>
			<path style="fill:#A4C2F7;" d="M486.266,223.641c-17.749,6.4-42.581-17.067-55.467-52.48
				c-12.885-35.413-8.96-69.376,8.704-75.861c17.749-6.4,42.581,17.067,55.467,52.48
				C507.855,183.193,503.93,217.156,486.266,223.641z"/>
		</g>
		<path style="fill:#FFFFFF;" d="M439.359,95.009l-127.326,46.654l-20.612,7.614l-115.277,42.265l-20.853,7.595L23.837,247.385
			c-12.431,4.599-17.991,22.726-15.703,45.5c1.096-8.833,6.586-16.511,14.589-20.405l131.454-48.248l20.853-7.594l115.276-42.265
			l20.612-7.614l127.326-46.654c17.671-6.465,42.614,16.916,55.666,52.269c3.649,9.799,6.096,20.005,7.287,30.393
			c3.125-18.711,0.987-37.922-6.174-55.489C481.973,111.926,457.03,88.544,439.359,95.009z"/>
	</g>
	<g>
		<circle style="fill:#428DFF;" cx="96.364" cy="221.935" r="8.533"/>
		<path style="fill:#428DFF;" d="M66.481,385.476c-20.95,0.005-44.258-23.391-57.275-59.162c-14.925-41.121-9-78.429,13.783-86.792
			l38.325-14c4.428-1.618,9.328,0.66,10.946,5.088c1.618,4.427-0.66,9.328-5.088,10.946L28.86,255.551
			c-11.317,4.15-15.275,32.808-3.613,64.933c11.675,32.083,33.121,51.529,44.55,47.363L485.331,215.63
			c11.342-4.167,15.304-32.821,3.617-64.933c-11.671-32.083-33.158-51.529-44.55-47.367L131.264,218.001
			c-2.863,1.051-6.07,0.494-8.41-1.462c-2.341-1.956-3.46-5.012-2.935-8.016c0.525-3.005,2.614-5.501,5.479-6.547L438.568,87.289
			c22.925-8.267,51.467,16.479,66.421,57.575c14.954,41.1,9.029,78.413-13.783,86.788L75.627,383.889
			C72.694,384.946,69.599,385.483,66.481,385.476L66.481,385.476z"/>
		<path style="fill:#428DFF;" d="M481.994,233.251c-20.883,0-44.171-23.387-57.196-59.183c-6.467-16.76-9.057-34.767-7.575-52.671
			c2.038-17.7,9.637-29.804,21.4-34.088c4.43-1.611,9.327,0.674,10.938,5.104c1.611,4.43-0.674,9.327-5.104,10.938
			c-5.212,1.896-9.058,9.371-10.279,20c-1.183,15.27,1.092,30.61,6.654,44.879c11.7,32.133,33.138,51.529,44.488,47.379
			c2.868-1.053,6.08-0.492,8.422,1.47c2.342,1.962,3.456,5.027,2.922,8.035c-0.534,3.008-2.636,5.501-5.511,6.537
			C488.216,232.717,485.117,233.258,481.994,233.251z"/>
		<path style="fill:#428DFF;" d="M363.46,277.022c-11.15-0.766-21.587-5.756-29.183-13.954
			c-12.643-12.764-22.234-28.224-28.054-45.221c-6.467-16.76-9.057-34.767-7.575-52.671c2.038-17.7,9.638-29.804,21.4-34.088
			c4.43-1.611,9.327,0.674,10.938,5.104c1.611,4.43-0.674,9.327-5.104,10.938c-5.212,1.896-9.058,9.371-10.279,19.996
			c-1.182,15.272,1.092,30.615,6.654,44.887c4.914,14.508,13.033,27.722,23.754,38.662c7.767,7.354,15.508,10.6,20.733,8.713
			c4.424-1.6,9.309,0.682,10.919,5.103s-0.661,9.31-5.077,10.931C369.661,276.487,366.572,277.028,363.46,277.022z"/>
		<path style="fill:#428DFF;" d="M227.139,326.639c-11.148-0.767-21.584-5.757-29.179-13.954
			c-12.643-12.764-22.234-28.224-28.054-45.221c-14.975-41.137-9.033-78.438,13.821-86.758c4.427-1.613,9.324,0.668,10.937,5.096
			c1.613,4.427-0.668,9.324-5.096,10.937c-11.358,4.138-15.321,32.767-3.629,64.892c4.914,14.508,13.033,27.722,23.754,38.662
			c7.767,7.35,15.513,10.596,20.729,8.713c2.866-1.052,6.076-0.492,8.417,1.468c2.341,1.96,3.456,5.021,2.925,8.027
			c-0.531,3.006-2.629,5.5-5.5,6.538C233.34,326.103,230.251,326.645,227.139,326.639L227.139,326.639z"/>
		<path style="fill:#428DFF;" d="M361.352,133.051c-3.588-0.002-6.792-2.248-8.017-5.621l-29.187-80.188
			c-3.208-8.855,1.354-18.637,10.2-21.871l16.042-5.837c8.855-3.208,18.637,1.354,21.871,10.2l29.183,80.183
			c1.052,2.866,0.492,6.076-1.468,8.417c-1.96,2.341-5.021,3.456-8.027,2.925s-5.5-2.629-6.538-5.5l-29.188-80.188l-16.037,5.838
			l29.183,80.188c0.774,2.126,0.672,4.473-0.285,6.523c-0.957,2.051-2.689,3.637-4.815,4.41
			C363.335,132.875,362.347,133.051,361.352,133.051z"/>
		<path style="fill:#428DFF;" d="M381.752,89.305c-4.14-0.003-7.682-2.976-8.4-7.054c-0.718-4.078,1.593-8.083,5.484-9.5
			l64.15-23.35c2.864-1.042,6.066-0.477,8.401,1.482c2.334,1.959,3.446,5.015,2.917,8.017c-0.53,3.001-2.62,5.492-5.484,6.534
			l-64.15,23.35C383.735,89.129,382.747,89.305,381.752,89.305z"/>
		<path style="fill:#428DFF;" d="M301.564,118.489c-4.14-0.003-7.682-2.976-8.4-7.054s1.593-8.083,5.484-9.5l48.112-17.513
			c2.864-1.042,6.067-0.477,8.401,1.482c2.334,1.959,3.446,5.015,2.917,8.017c-0.53,3.001-2.62,5.492-5.484,6.534l-48.113,17.513
			C303.547,118.312,302.56,118.489,301.564,118.489L301.564,118.489z"/>
		<path style="fill:#428DFF;" d="M364.243,41.193c-4.141-0.002-7.683-2.976-8.401-7.054c-0.718-4.078,1.594-8.083,5.485-9.501
			l64.15-23.35c2.866-1.051,6.076-0.49,8.416,1.47c2.34,1.961,3.454,5.022,2.921,8.029c-0.533,3.006-2.632,5.498-5.504,6.535
			l-64.15,23.35C366.227,41.017,365.239,41.193,364.243,41.193L364.243,41.193z"/>
		<path style="fill:#428DFF;" d="M284.056,70.376c-4.141-0.002-7.683-2.976-8.401-7.054s1.594-8.083,5.485-9.5l48.113-17.513
			c4.428-1.611,9.323,0.673,10.933,5.1c1.611,4.428-0.673,9.323-5.1,10.933l-48.112,17.512
			C286.039,70.2,285.051,70.376,284.056,70.376z"/>
		<path style="fill:#428DFF;" d="M441.898,66.647c-5.419-0.117-10.659-1.964-14.954-5.271c-6.393-4.937-11.208-11.631-13.854-19.262
			c-2.877-7.545-3.49-15.766-1.762-23.654c1.509-7.747,6.831-14.207,14.146-17.171c7.508-2.44,15.741-0.912,21.875,4.058
			c6.393,4.933,11.208,11.625,13.854,19.254c6.546,17.992,1.104,35.925-12.379,40.833C446.603,66.242,444.259,66.652,441.898,66.647
			z M432.427,17.143c-0.378-0.005-0.755,0.055-1.112,0.179c-1.878,1.104-3.137,3.018-3.408,5.179
			c-0.913,4.614-0.49,9.393,1.221,13.775l0.004,0.004c1.505,4.458,4.254,8.393,7.921,11.342c1.598,1.473,3.784,2.129,5.929,1.779
			c3.271-1.192,5.746-9.171,2.183-18.963c-1.505-4.457-4.254-8.391-7.921-11.337C435.875,17.973,434.194,17.29,432.427,17.143
			L432.427,17.143z"/>
		<path style="fill:#428DFF;" d="M297.568,119.176c-5.411-0.118-10.643-1.96-14.933-5.258c-6.407-4.929-11.232-11.625-13.879-19.263
			c-6.55-17.988-1.108-35.921,12.379-40.833c2.864-1.044,6.067-0.48,8.403,1.479c2.336,1.959,3.449,5.015,2.921,8.017
			c-0.528,3.002-2.618,5.494-5.482,6.538c-3.196,1.167-5.696,9.321-2.187,18.958c1.509,4.461,4.263,8.397,7.937,11.342
			c1.591,1.477,3.775,2.134,5.917,1.779c2.866-1.052,6.076-0.492,8.417,1.468c2.341,1.96,3.456,5.021,2.925,8.027
			c-0.531,3.006-2.629,5.5-5.5,6.538C302.268,118.774,299.927,119.183,297.568,119.176L297.568,119.176z"/>
		<path style="fill:#428DFF;" d="M244.698,111.943c-4.142-0.001-7.686-2.976-8.405-7.056c-0.719-4.08,1.595-8.086,5.488-9.503
			l32.075-11.671c2.868-1.053,6.08-0.492,8.422,1.47c2.342,1.962,3.456,5.027,2.922,8.035c-0.534,3.008-2.636,5.501-5.511,6.537
			l-32.075,11.671C246.68,111.767,245.693,111.942,244.698,111.943L244.698,111.943z"/>
		<path style="fill:#428DFF;" d="M415.306,512.068h-42.667c-3.161-0.001-6.063-1.748-7.542-4.542l-62.124-117.417
			c-0.955-1.788-1.706-3.677-2.238-5.633c-1.216-4.554,1.49-9.232,6.044-10.448c4.554-1.216,9.232,1.49,10.448,6.044
			c0.198,0.714,0.476,1.403,0.829,2.054l59.721,112.875h23.358l-64.796-122.47c-1.806-3.397-5.336-5.523-9.183-5.53
			c-4.728,0.647-9.121-2.564-9.938-7.267c-0.38-2.204,0.144-4.469,1.455-6.281c1.31-1.813,3.296-3.021,5.508-3.352
			c11.195-1.351,22.051,4.397,27.225,14.417l71.442,135.025c1.4,2.645,1.312,5.83-0.232,8.393
			C421.072,510.5,418.298,512.068,415.306,512.068z"/>
		<path style="fill:#428DFF;" d="M226.89,512.068h-42.667c-2.993,0-5.766-1.568-7.31-4.132s-1.632-5.749-0.232-8.393l71.425-134.996
			c5.172-10.033,16.035-15.793,27.242-14.446c4.658,0.663,7.9,4.971,7.247,9.631s-4.953,7.911-9.614,7.269l0,0
			c-4.059-0.159-7.859,1.994-9.808,5.558l-64.779,122.442h23.358l59.721-112.875c0.353-0.651,0.631-1.34,0.829-2.054
			c0.787-2.946,3.085-5.248,6.03-6.04c2.945-0.792,6.088,0.048,8.246,2.202c2.158,2.154,3.003,5.296,2.216,8.242
			c-0.532,1.956-1.282,3.846-2.238,5.633l-62.125,117.417C232.952,510.32,230.05,512.067,226.89,512.068z"/>
		<path style="fill:#428DFF;" d="M299.764,392.601c-18.851,0-34.133-15.282-34.133-34.133c0-18.851,15.282-34.133,34.133-34.133
			c18.851,0,34.133,15.282,34.133,34.133C333.876,377.31,318.607,392.58,299.764,392.601L299.764,392.601z M299.764,341.401
			c-9.426,0-17.067,7.641-17.067,17.067c0,9.426,7.641,17.067,17.067,17.067s17.067-7.641,17.067-17.067
			C316.822,349.046,309.186,341.411,299.764,341.401z"/>
		<path style="fill:#428DFF;" d="M316.831,347.972c-4.713,0-8.533-3.82-8.533-8.533v-52.992c0-4.713,3.821-8.533,8.533-8.533
			s8.533,3.821,8.533,8.533v52.992C325.364,344.151,321.544,347.972,316.831,347.972z"/>
		<path style="fill:#428DFF;" d="M282.698,347.972c-4.713,0-8.533-3.82-8.533-8.533v-40.533c0-4.713,3.821-8.533,8.533-8.533
			c4.713,0,8.533,3.82,8.533,8.533v40.533C291.231,344.151,287.41,347.972,282.698,347.972z"/>
	</g>
</g>
<g>
</g>
<g>
</g>
<g>
</g>
<g>
</g>
<g>
</g>
<g>
</g>
<g>
</g>
<g>
</g>
<g>
</g>
<g>
</g>
<g>
</g>
<g>
</g>
<g>
</g>
<g>
</g>
<g>
</g>
</svg>
